# xmcd CD database file
#
# Track frame offsets:
#	150
#	24656
#	45317
#	67616
#	94295
#	114215
#	134346
#	149842
#	166818
#	191828
#	214345
#	234619
#	254366
#	272025
#	291024
#	308532
#
# Disc length: 4324 seconds
#
# Revision: 1
# Processed by: cddbd v1.5.2PL0 Copyright (c) Steve Scherf et al.
# Submitted via: CDex 1.70beta2
#
DISCID=e710e210
DTITLE=Various Artist - Smooth Jazz Cafe 10.1
DYEAR=2010
DGENRE=Jazz
TTITLE0=Boz Scaggs - Invitation
TTITLE1=Melody Gardot - Over The Rainbow
TTITLE2=Christopher Cross - Never Be The Same
TTITLE3=Anna Jopek - Zrob co mozesz
TTITLE4=Kayah - Bursztynowa wieza
TTITLE5=Basia - Blame It On The Summer
TTITLE6=Simply Red - Go Now
TTITLE7=Jonatha Brooke - Because, I Told You So
TTITLE8=Diana Krall - Body And Soul
TTITLE9=Kuba Badach - Bylas serca biciem
TTITLE10=Richard Bona - Good Times
TTITLE11=India Arie - Pearls
TTITLE12=Michal Rudas - Wszystko na dobrej drodze
TTITLE13=Stacey Kent - Au coin du monde
TTITLE14=Carl Riseley - The Stillest Hour
TTITLE15=Dorota Miskiewicz - Nuce, gwizdze sobie
EXTD=YEAR: 2010
EXTT0=
EXTT1=
EXTT2=
EXTT3=
EXTT4=
EXTT5=
EXTT6=
EXTT7=
EXTT8=
EXTT9=
EXTT10=
EXTT11=
EXTT12=
EXTT13=
EXTT14=
EXTT15=
PLAYORDER=
